<svg width="127" height="40" viewBox="0 0 127 40" xmlns="http://www.w3.org/2000/svg">
    <g fill="#009FC7" fill-rule="evenodd">
        <path d="M0 23.037c0-5.726 4.13-9.756 9.864-9.756 4.612 0 7.498 2.922 7.498 5.45 0 1.937-1.002 3.317-2.844 3.317-1.726 0-2.729-1.184-2.729-2.606 0-1.142.884-2.093 1.646-2.407-.563-.832-1.684-1.462-3.449-1.462-2.729 0-4.934 2.487-4.934 7.029 0 4.228 1.804 6.792 5.294 6.792 2.205 0 3.889-1.261 4.731-3.672h2.446c-.88 4.03-3.77 6.556-8.141 6.556-5.933 0-9.382-3.87-9.382-9.241M19.54 22.84c0-5.608 3.95-9.557 9.536-9.557 5.789 0 9.54 3.79 9.54 9.4 0 5.608-3.95 9.593-9.54 9.593-5.824 0-9.536-3.828-9.536-9.436m13.968-.08c0-5.016-1.677-7.109-4.59-7.109-2.914 0-4.27 2.132-4.27 7.109s1.635 7.147 4.589 7.147c2.832 0 4.271-2.17 4.271-7.147M41.252 22.84c0-5.608 3.95-9.557 9.536-9.557 5.789 0 9.54 3.79 9.54 9.4 0 5.608-3.95 9.593-9.54 9.593-5.827 0-9.536-3.828-9.536-9.436m13.965-.08c0-5.016-1.674-7.109-4.59-7.109-2.911 0-4.268 2.132-4.268 7.109s1.636 7.147 4.59 7.147c2.832 0 4.268-2.17 4.268-7.147M61.723 37.078h2.838V16.519h-2.838v-2.922H69v4.266c1.276-3.082 3.477-4.583 6.19-4.583 1.964 0 3.52.714 4.718 1.898 1.681 1.658 2.44 4.263 2.44 7.263 0 3.117-.958 5.764-2.636 7.422-1.282 1.264-2.922 2.013-4.718 2.013-2.758 0-4.718-1.382-5.798-3.239v8.44h3.68V40H61.723v-2.922m15.588-14.676c0-4.145-1.559-6.158-3.915-6.158-2.32 0-4.396 2.8-4.396 6.632 0 3.473 1.436 6.197 4.396 6.197 2.556 0 3.915-2.33 3.915-6.67M89.909 23.195c.16 4.465 2.024 6.276 5.322 6.276 2.182 0 3.773-.944 4.766-3.274h2.382c-.913 3.87-3.654 6.078-8.183 6.078-5.798 0-9.211-3.946-9.211-9.317 0-5.528 3.93-9.676 9.291-9.676 5.799 0 8.421 4.622 8.222 9.913h-12.59m.042-2.094h7.94c-.239-3.556-1.35-5.489-3.851-5.489-2.263 0-3.774 1.46-4.089 5.49M104.99 28.766h2.764V16.45h-2.764v-2.894h7.193v4.417c.99-3.165 3.282-4.692 5.535-4.692 2.134 0 3.4 1.527 3.4 3.284 0 1.604-1.147 2.897-2.687 2.897-1.542 0-2.728-.9-2.728-2.503 0-.157.038-.352.077-.51-1.463 0-2.726 1.643-3.398 3.912v8.405h3.44v2.894H104.99v-2.894M32.567 6.803c-.771 1.882-1.777 2.618-2.8 2.618-1.07 0-1.764-.685-1.764-1.82 0-1.96 1.308-3.9 1.308-5.23 0-.452-.196-.647-.533-.647-.877 0-2.603 1.488-4.191 7.499H22.24l1.391-5.17c.177-.646.277-1.116.277-1.488 0-.47-.158-.841-.595-.841-.913 0-2.623 1.488-4.21 7.499h-2.385l1.71-6.344c.295-1.117.238-1.43-.122-1.43-.367 0-.775.55-1.219 1.398l-.96-.38C16.914.906 17.827.02 19.003.02c.852 0 1.45.605 1.45 1.821 0 .567-.12 1.274-.418 2.173l.141.058c1.308-2.76 2.78-4.071 4.13-4.071 1.093 0 1.668.723 1.668 1.898 0 .547-.16 1.216-.456 2.115l.138.058c1.311-2.76 2.78-4.071 4.191-4.071 1.093 0 1.787.86 1.787 2.035 0 1.665-1.469 4.17-1.469 5.365 0 .294.12.432.338.432.353 0 .707-.448 1.128-1.399l.935.368M33.652 2.465C34.417.905 35.307.019 36.448.019c.839 0 1.424.621 1.424 1.86 0 .582-.116 1.28-.39 2.16l.155.061C38.77 1.46 39.704 0 41.07 0c.82 0 1.42.58 1.42 1.52 0 1.002-.62 1.802-1.4 1.802-.682 0-1.213-.46-1.17-1.302-.567.24-1.971 1.94-3.376 7.4h-2.34l1.678-6.478c.293-1.143.235-1.463-.115-1.463-.354 0-.746.537-1.174 1.373l-.941-.387M40.476 8.16c0-.797.613-1.674 1.574-1.674.778 0 1.373.54 1.373 1.414 0 .797-.614 1.674-1.575 1.674-.778 0-1.372-.537-1.372-1.414M124.683 13.877c.344 0 .469-.16.469-.451 0-.256-.106-.397-.437-.397h-.402v.848h.37zm-.37 1.053h.376v.269h-1.237v-.269h.389v-1.901h-.39v-.282h1.277c.739 0 .957.333.957.647 0 .259-.173.528-.68.592v.032c.414.064.526.259.562.525l.019.227c.013.138.045.182.106.182.058 0 .122-.054.164-.182l.183.074c-.077.236-.215.41-.466.41-.29 0-.495-.142-.495-.506v-.237c0-.247-.061-.375-.389-.375h-.376v.794zm2.311-.922c0-1.216-.787-2.042-2.015-2.042-1.212 0-2.009.826-2.009 2.042 0 1.223.797 2.061 2.009 2.061 1.228 0 2.015-.838 2.015-2.06zm-4.403 0c0-1.367 1.038-2.365 2.388-2.365 1.353 0 2.391.998 2.391 2.365 0 1.364-1.038 2.385-2.391 2.385-1.35 0-2.388-1.021-2.388-2.385z"/>
    </g>
</svg>
